<svg xmlns="http://www.w3.org/2000/svg" viewBox="0 0 64 64" fill="none">
  <defs>
    <linearGradient id="g" x1="10" y1="8" x2="54" y2="56" gradientUnits="userSpaceOnUse">
      <stop stop-color="#E879F9"/>
      <stop offset="0.55" stop-color="#22D3EE"/>
      <stop offset="1" stop-color="#A78BFA"/>
    </linearGradient>
  </defs>
  <path d="M32 6c13.8 0 25 11.2 25 25S45.8 56 32 56 7 44.8 7 31 18.2 6 32 6Z" fill="url(#g)" opacity="0.22"/>
  <path d="M32 14c9.4 0 17 7.6 17 17s-7.6 17-17 17-17-7.6-17-17 7.6-17 17-17Z" stroke="url(#g)" stroke-width="3"/>
  <path d="M20 34c3.6 5.6 12.4 8.3 19.8 4.8 2.8-1.3 4.9-3.3 6.2-5.7" stroke="url(#g)" stroke-width="3" stroke-linecap="round"/>
  <path d="M22.5 28.5h.01" stroke="#fff" stroke-width="6" stroke-linecap="round"/>
  <path d="M41.5 26.5h.01" stroke="#fff" stroke-width="6" stroke-linecap="round"/>
</svg>
